<svg xmlns="http://www.w3.org/2000/svg" viewBox="0 0 512 512" role="img" aria-label="Original digital marketplace cover"><defs><linearGradient id="bg" x1="0" x2="1" y1="0" y2="1"><stop stop-color="#16476C"/><stop offset="1" stop-color="#77C8E8"/></linearGradient><radialGradient id="light" cx="78%" cy="18%" r="70%"><stop stop-color="#D5F5C4" stop-opacity=".8"/><stop offset="1" stop-color="#D5F5C4" stop-opacity="0"/></radialGradient><filter id="shadow"><feDropShadow dx="0" dy="18" stdDeviation="16" flood-opacity=".22"/></filter></defs><rect width="512" height="512" rx="44" fill="url(#bg)"/><rect width="512" height="512" rx="44" fill="url(#light)"/><circle cx="90" cy="86" r="38" fill="#FFFFFF" fill-opacity=".13"/><circle cx="425" cy="410" r="76" fill="#FFFFFF" fill-opacity=".1"/><g filter="url(#shadow)" style="color:#16476C"><path d="M170 362h184c50 0 77-35 77-75 0-44-34-76-78-76-12-64-58-99-113-99-66 0-112 48-112 108-36 2-66 33-66 72 0 39 31 70 70 70h38Z" fill="#FFFFFF" fill-opacity=".9"/><path d="M256 196v108m-47-47 47-47 47 47" fill="none" stroke="currentColor" stroke-width="18" stroke-linecap="round" stroke-linejoin="round"/></g></svg>