<svg xmlns="http://www.w3.org/2000/svg" viewBox="0 0 1200 700" role="img" aria-labelledby="title desc">
  <title id="title">BikriKoro buyer education illustration</title>
  <desc id="desc">A green digital marketplace learning scene with search, protection and delivery symbols.</desc>
  <defs><linearGradient id="bg" x1="0" x2="1" y1="0" y2="1"><stop stop-color="#e7f6ef"/><stop offset="1" stop-color="#c9ecdc"/></linearGradient><filter id="shadow" x="-20%" y="-20%" width="140%" height="140%"><feDropShadow dx="0" dy="18" stdDeviation="18" flood-color="#017c50" flood-opacity=".16"/></filter></defs>
  <rect width="1200" height="700" rx="36" fill="url(#bg)"/><circle cx="1000" cy="100" r="140" fill="#fff" opacity=".48"/><circle cx="130" cy="610" r="170" fill="#fff" opacity=".38"/>
  <g filter="url(#shadow)"><rect x="190" y="130" width="820" height="460" rx="30" fill="#fff"/><rect x="245" y="190" width="510" height="66" rx="14" fill="#f5fbf8" stroke="#b9dfce" stroke-width="3"/><circle cx="283" cy="223" r="15" fill="none" stroke="#017c50" stroke-width="8"/><path d="m294 234 18 18" stroke="#017c50" stroke-width="8" stroke-linecap="round"/><rect x="330" y="214" width="350" height="18" rx="9" fill="#b9dfce"/><rect x="785" y="190" width="170" height="66" rx="14" fill="#017c50"/><path d="M817 222h84" stroke="#fff" stroke-width="10" stroke-linecap="round"/><path d="m845 207-15 15 15 15" fill="none" stroke="#fff" stroke-width="8" stroke-linecap="round" stroke-linejoin="round"/>
  <rect x="245" y="300" width="210" height="210" rx="22" fill="#e7f6ef"/><rect x="495" y="300" width="210" height="210" rx="22" fill="#fff6e8"/><rect x="745" y="300" width="210" height="210" rx="22" fill="#f5effa"/>
  <circle cx="350" cy="390" r="48" fill="#017c50"/><path d="M350 360v64M320 390h60" stroke="#fff" stroke-width="12" stroke-linecap="round"/><circle cx="600" cy="390" r="48" fill="#f39a3e"/><path d="M600 355c-30 36-38 54-38 72a38 38 0 0 0 76 0c0-18-8-36-38-72Z" fill="none" stroke="#fff" stroke-width="10"/><path d="M580 435h40" stroke="#fff" stroke-width="10" stroke-linecap="round"/><circle cx="850" cy="390" r="48" fill="#7b4bb7"/><path d="m825 392 18 18 34-40" fill="none" stroke="#fff" stroke-width="12" stroke-linecap="round" stroke-linejoin="round"/></g>
  <text x="350" y="480" text-anchor="middle" font-family="Arial, sans-serif" font-size="23" font-weight="700" fill="#0e6044">খুঁজে নিন</text><text x="600" y="480" text-anchor="middle" font-family="Arial, sans-serif" font-size="23" font-weight="700" fill="#91540b">নিরাপদ পেমেন্ট</text><text x="850" y="480" text-anchor="middle" font-family="Arial, sans-serif" font-size="23" font-weight="700" fill="#593088">Access যাচাই</text>
</svg>
